<svg version="1.1" preserveAspectRatio="none" xmlns="http://www.w3.org/2000/svg" width="500" height="500" viewBox="0 0 500 500"><rect width="100%" height="100%" fill="#101F37" fill-opacity="1"/><svg viewBox="47.5858 121.3335 351.3644 160.4075" width="333" height="152.02364696024983" x="83.5px" y="173.9882px" xmlns="http://www.w3.org/2000/svg" xmlns:xlink="http://www.w3.org/1999/xlink" preserveAspectRatio="none"><defs></defs><style>.companyName {fill:#E9B0D6;fill-opacity:1;}.icon1 {fill:#929292;fill-opacity:1;}.icon2 {fill:#E9B0D6;fill-opacity:1;}.icon3 {fill:#E5E5E5;fill-opacity:1;}.icon3-str {stroke:#E5E5E5;stroke-opacity:1;}</style><g opacity="1" transform="rotate(0 47.5858 241.741)">
<svg width="351.3644" height="40" x="47.5858" y="241.741" version="1.1" preserveAspectRatio="none" viewBox="0.4297 -32.3828 367.1484 41.7969">
  <g transform="matrix(1 0 0 1 0 0)" class="companyName"><path id="id-D6z1nYkh11" d="M11.35 0L0.43-23.07L7.13-23.07L13.13-9.20L14.88-5.31L17.03-10.35L11.33-23.07L16.95-23.07L19.75-16.23L22.54-23.07L28.16-23.07L22.44-10.35L24.61-5.31L26.37-9.20L32.36-23.07L39.06-23.07L28.14 0L21.86 0L19.75-4.45L17.64 0L11.35 0Z M45.11 0L45.11-32.38L50.89-32.38L50.89-21.29Q52.70-22.29 54.94-22.87Q57.18-23.46 59.64-23.46L59.64-23.46Q62.49-23.46 64.76-22.62Q67.04-21.78 68.62-20.21Q70.20-18.63 71.05-16.39Q71.90-14.14 71.90-11.33L71.90-11.33L71.90 0L66.14 0L66.14-11.09Q66.14-12.73 65.61-14.09Q65.09-15.45 64.07-16.43Q63.05-17.40 61.60-17.94Q60.14-18.48 58.31-18.48L58.31-18.48Q56.10-18.48 54.21-17.77Q52.31-17.07 50.89-16.00L50.89-16.00L50.89 0L45.11 0Z M79.27-11.60L79.27-11.60Q79.27-13.95 80.23-16.08Q81.19-18.22 82.98-19.86Q84.78-21.50 87.39-22.48Q90.00-23.46 93.32-23.46L93.32-23.46Q96.62-23.46 99.26-22.47Q101.91-21.48 103.76-19.77Q105.60-18.05 106.59-15.72Q107.57-13.40 107.57-10.74L107.57-10.74Q107.57-10.41 107.56-10.03Q107.55-9.65 107.52-9.34L107.52-9.34L85.72-9.34Q86.09-8.30 86.92-7.44Q87.75-6.58 89-5.96Q90.25-5.33 91.89-4.99Q93.53-4.65 95.52-4.65L95.52-4.65Q97.52-4.65 99.49-5.07Q101.46-5.49 103.26-6.13L103.26-6.13L105.21-1.72Q104.08-1.19 102.92-0.79Q101.75-0.39 100.49-0.13Q99.23 0.14 97.86 0.27Q96.48 0.41 94.96 0.41L94.96 0.41Q91.07 0.41 88.14-0.53Q85.21-1.46 83.24-3.09Q81.27-4.71 80.27-6.89Q79.27-9.08 79.27-11.60ZM85.72-13.85L101.44-13.85Q101.13-14.80 100.47-15.63Q99.82-16.46 98.84-17.08Q97.87-17.70 96.58-18.05Q95.29-18.40 93.75-18.40L93.75-18.40Q92.11-18.40 90.76-18.03Q89.41-17.66 88.39-17.03Q87.38-16.41 86.71-15.59Q86.03-14.77 85.72-13.85L85.72-13.85Z M114.69-7.27L114.69-7.27Q114.69-8.93 115.41-10.29Q116.14-11.66 117.58-12.65Q119.03-13.63 121.19-14.17Q123.34-14.71 126.21-14.71L126.21-14.71Q128.34-14.71 130.70-14.39Q133.05-14.08 135.55-13.44L135.55-13.44Q135.45-14.53 134.89-15.46Q134.32-16.39 133.31-17.06Q132.31-17.73 130.89-18.11Q129.48-18.48 127.68-18.48L127.68-18.48Q126.70-18.48 125.53-18.36Q124.36-18.24 123.11-18.01Q121.86-17.77 120.64-17.42Q119.42-17.07 118.36-16.58L118.36-16.58L116.61-21.33Q117.91-21.80 119.41-22.19Q120.90-22.58 122.46-22.86Q124.03-23.14 125.59-23.30Q127.15-23.46 128.62-23.46L128.62-23.46Q135.08-23.46 138.23-20.16Q141.37-16.86 141.37-10.04L141.37-10.04L141.37 0L135.59 0L135.59-2.17Q134.69-1.64 133.63-1.17Q132.56-0.70 131.31-0.35Q130.06 0 128.63 0.21Q127.19 0.41 125.59 0.41L125.59 0.41Q122.89 0.41 120.85-0.18Q118.81-0.76 117.45-1.80Q116.08-2.83 115.38-4.23Q114.69-5.63 114.69-7.27ZM120.79-7.46L120.79-7.46Q120.79-6.89 121.08-6.38Q121.37-5.86 122.02-5.46Q122.66-5.06 123.67-4.81Q124.67-4.57 126.10-4.57L126.10-4.57Q127.62-4.57 129.05-4.84Q130.47-5.12 131.70-5.57Q132.93-6.02 133.93-6.60Q134.93-7.19 135.59-7.81L135.59-7.81L135.59-8.83Q134.26-9.20 132.96-9.45Q131.66-9.71 130.48-9.85Q129.30-10 128.26-10.06Q127.21-10.12 126.43-10.12L126.43-10.12Q124.81-10.12 123.73-9.90Q122.66-9.69 122.00-9.33Q121.33-8.96 121.06-8.48Q120.79-7.99 120.79-7.46Z M154.48 0L154.48-18.71L148.92-18.71L148.92-23.05L154.48-23.05L154.48-30.21L160.27-30.21L160.27-23.05L165.83-23.05L165.83-18.71L160.27-18.71L160.27 0L154.48 0Z M172.97 0L172.97-32.38L178.75-32.38L178.75-21.29Q180.57-22.29 182.80-22.87Q185.04-23.46 187.50-23.46L187.50-23.46Q190.35-23.46 192.63-22.62Q194.90-21.78 196.48-20.21Q198.07-18.63 198.92-16.39Q199.77-14.14 199.77-11.33L199.77-11.33L199.77 0L194.00 0L194.00-11.09Q194.00-12.73 193.48-14.09Q192.95-15.45 191.93-16.43Q190.92-17.40 189.46-17.94Q188.01-18.48 186.17-18.48L186.17-18.48Q183.96-18.48 182.07-17.77Q180.18-17.07 178.75-16.00L178.75-16.00L178.75 0L172.97 0Z M207.14-11.60L207.14-11.60Q207.14-13.95 208.09-16.08Q209.05-18.22 210.85-19.86Q212.64-21.50 215.25-22.48Q217.86-23.46 221.18-23.46L221.18-23.46Q224.48-23.46 227.13-22.47Q229.77-21.48 231.62-19.77Q233.46-18.05 234.45-15.72Q235.44-13.40 235.44-10.74L235.44-10.74Q235.44-10.41 235.43-10.03Q235.42-9.65 235.38-9.34L235.38-9.34L213.58-9.34Q213.95-8.30 214.78-7.44Q215.61-6.58 216.86-5.96Q218.11-5.33 219.75-4.99Q221.39-4.65 223.39-4.65L223.39-4.65Q225.38-4.65 227.35-5.07Q229.32-5.49 231.12-6.13L231.12-6.13L233.07-1.72Q231.94-1.19 230.78-0.79Q229.62-0.39 228.36-0.13Q227.10 0.14 225.72 0.27Q224.34 0.41 222.82 0.41L222.82 0.41Q218.93 0.41 216.00-0.53Q213.07-1.46 211.10-3.09Q209.13-4.71 208.13-6.89Q207.14-9.08 207.14-11.60ZM213.58-13.85L229.30-13.85Q228.99-14.80 228.34-15.63Q227.68-16.46 226.71-17.08Q225.73-17.70 224.44-18.05Q223.15-18.40 221.61-18.40L221.61-18.40Q219.97-18.40 218.62-18.03Q217.27-17.66 216.26-17.03Q215.24-16.41 214.57-15.59Q213.89-14.77 213.58-13.85L213.58-13.85Z M243.65 0L243.65-23.05L249.43-23.05L249.43-19.73Q251.34-21.15 253.47-22.19Q255.60-23.22 257.71-23.77L257.71-23.77L259.41-18.48Q256.07-18.14 253.54-16.98Q251.01-15.82 249.43-13.71L249.43-13.71L249.43 0L243.65 0Z M262.50 0L276.84-30.53L283.40-30.53L298.17 0L291.66 0L289.22-5.14L271.39-5.14L269.03 0L262.50 0ZM273.75-10.23L286.78-10.23L280.18-24.10L273.75-10.23Z M309.82-1.66L309.82 9.41L304.04 9.41L304.04-23.05L309.82-23.05L309.82-20.88Q310.58-21.41 311.61-21.88Q312.65-22.34 313.84-22.70Q315.03-23.05 316.30-23.25Q317.57-23.46 318.84-23.46L318.84-23.46Q321.77-23.46 324.22-22.60Q326.67-21.74 328.43-20.18Q330.19-18.61 331.17-16.44Q332.16-14.26 332.16-11.62L332.16-11.62Q332.16-8.87 331.13-6.65Q330.09-4.43 328.26-2.86Q326.44-1.29 323.93-0.44Q321.42 0.41 318.49 0.41L318.49 0.41Q317.24 0.41 316.02 0.25Q314.80 0.10 313.67-0.18Q312.55-0.45 311.56-0.83Q310.58-1.21 309.82-1.66L309.82-1.66ZM309.82-15.23L309.82-7.25Q310.70-6.54 311.67-6.05Q312.65-5.57 313.66-5.25Q314.68-4.94 315.71-4.79Q316.75-4.65 317.73-4.65L317.73-4.65Q319.72-4.65 321.27-5.19Q322.82-5.72 323.89-6.66Q324.95-7.60 325.52-8.87Q326.09-10.14 326.09-11.62L326.09-11.62Q326.09-13.01 325.53-14.24Q324.97-15.47 323.93-16.40Q322.88-17.32 321.41-17.86Q319.93-18.40 318.10-18.40L318.10-18.40Q316.93-18.40 315.75-18.17Q314.58-17.95 313.50-17.54Q312.41-17.13 311.47-16.54Q310.52-15.96 309.82-15.23L309.82-15.23Z M345.23-1.66L345.23 9.41L339.45 9.41L339.45-23.05L345.23-23.05L345.23-20.88Q346.00-21.41 347.03-21.88Q348.07-22.34 349.26-22.70Q350.45-23.05 351.72-23.25Q352.99-23.46 354.26-23.46L354.26-23.46Q357.19-23.46 359.64-22.60Q362.09-21.74 363.85-20.18Q365.61-18.61 366.59-16.44Q367.58-14.26 367.58-11.62L367.58-11.62Q367.58-8.87 366.54-6.65Q365.51-4.43 363.68-2.86Q361.86-1.29 359.35-0.44Q356.84 0.41 353.91 0.41L353.91 0.41Q352.66 0.41 351.44 0.25Q350.21 0.10 349.09-0.18Q347.97-0.45 346.98-0.83Q346.00-1.21 345.23-1.66L345.23-1.66ZM345.23-15.23L345.23-7.25Q346.11-6.54 347.09-6.05Q348.07-5.57 349.08-5.25Q350.10-4.94 351.13-4.79Q352.17-4.65 353.14-4.65L353.14-4.65Q355.14-4.65 356.69-5.19Q358.24-5.72 359.31-6.66Q360.37-7.60 360.94-8.87Q361.50-10.14 361.50-11.62L361.50-11.62Q361.50-13.01 360.95-14.24Q360.39-15.47 359.35-16.40Q358.30-17.32 356.83-17.86Q355.35-18.40 353.52-18.40L353.52-18.40Q352.34-18.40 351.17-18.17Q350-17.95 348.92-17.54Q347.83-17.13 346.88-16.54Q345.94-15.96 345.23-15.23L345.23-15.23Z"/></g>
</svg>
</g><g opacity="1" transform="rotate(0 152.9951 121.3335)">
<svg width="140.5458" height="90.4075" x="152.9951" y="121.3335" version="1.1" preserveAspectRatio="none" viewBox="7.500959396362305 40.499000549316406 184.9980926513672 119.0019760131836">
  <g transform="matrix(1 0 0 1 0 0)" class="icon1"><g><path d="M92.672 83.724H87.61c.541-.77.855-1.692.811-2.668-.116-2.602-2.105-4.803-4.791-4.803H59.674c-2.506 0-4.907 2.209-4.791 4.803.116 2.602 2.105 4.803 4.791 4.803h5.07c-.541.77-.855 1.692-.811 2.668.116 2.602 2.105 4.803 4.791 4.803h23.948c2.506 0 4.907-2.209 4.791-4.803-.116-2.602-2.105-4.803-4.791-4.803z"></path><path d="M169.342 84.358c-3.701.119-7.402.173-11.104.167.958-.884 1.578-2.122 1.518-3.468-.116-2.602-2.105-4.803-4.791-4.803h-26.618c-2.506 0-4.907 2.209-4.791 4.803.116 2.602 2.105 4.803 4.791 4.803h9.029c-.691.853-1.109 1.917-1.061 2.992.121 2.718 2.106 4.657 4.791 4.803 9.404.509 18.823.612 28.236.309 2.502-.081 4.91-2.151 4.791-4.803-.113-2.534-2.108-4.89-4.791-4.803z"></path><path d="M123.557 101.868h-13.309c-2.506 0-4.907 2.209-4.791 4.803.025.559.141 1.097.327 1.601h-1.924c-2.506 0-4.907 2.209-4.791 4.803.116 2.602 2.105 4.803 4.791 4.803h12.244c2.506 0 4.907-2.209 4.791-4.803a5.305 5.305 0 0 0-.327-1.601h2.989c2.506 0 4.907-2.209 4.791-4.803-.117-2.603-2.105-4.803-4.791-4.803z"></path><path d="M142.721 55.442h-7.107c.803-.859 1.306-1.986 1.251-3.202-.116-2.602-2.105-4.803-4.791-4.803h-1.024a4.197 4.197 0 0 0 .491-2.135c-.116-2.602-2.105-4.803-4.791-4.803h-23.956c-2.506 0-4.907 2.209-4.791 4.803.034.762.232 1.487.558 2.135H73.515c-2.506 0-4.907 2.209-4.791 4.803.044.978.352 1.899.863 2.668H50.255c-2.506 0-4.907 2.209-4.791 4.803.116 2.602 2.105 4.803 4.791 4.803h50.41c.918 0 1.821-.299 2.592-.802a4.619 4.619 0 0 0 3.264 1.336h36.2c2.506 0 4.907-2.209 4.791-4.803-.116-2.603-2.105-4.803-4.791-4.803z"></path><path d="M187.705 129.617h-14.56c.145-.456.217-.935.195-1.423a5.287 5.287 0 0 0-.39-1.779h8.366c2.506 0 4.907-2.209 4.791-4.803-.116-2.602-2.105-4.803-4.791-4.803h-28.215c-2.506 0-4.907 2.209-4.791 4.803a5.31 5.31 0 0 0 .303 1.536c-4.359.001-8.719.036-13.078.108-2.505.041-4.908 2.179-4.791 4.803.024.539.135 1.063.314 1.558H107.32c-2.506 0-4.907 2.209-4.791 4.803.116 2.602 2.105 4.803 4.791 4.803h6.508a4.197 4.197 0 0 0-.491 2.135c.116 2.602 2.105 4.803 4.791 4.803h44.556c2.506 0 4.907-2.209 4.791-4.803a5.271 5.271 0 0 0-.558-2.135h20.787c2.506 0 4.907-2.209 4.791-4.803-.115-2.603-2.104-4.803-4.79-4.803z"></path><path d="M94.277 141.89H79.945a4.197 4.197 0 0 0 .491-2.135c-.116-2.602-2.105-4.803-4.791-4.803h-25.02c2.506 0 4.907-2.209 4.791-4.803a5.305 5.305 0 0 0-.327-1.601h10.442c2.506 0 4.907-2.209 4.791-4.803-.116-2.602-2.105-4.803-4.791-4.803H39.446c-2.506 0-4.907 2.209-4.791 4.803.025.559.141 1.097.327 1.601h-8.845c-2.506 0-4.907 2.209-4.791 4.803.116 2.602 2.105 4.803 4.791 4.803h10.115c-2.506 0-4.907 2.209-4.791 4.803a5.201 5.201 0 0 0 1.277 3.202H12.296c-2.506 0-4.907 2.209-4.791 4.803.116 2.602 2.105 4.803 4.791 4.803H47.39a4.197 4.197 0 0 0-.491 2.135c.116 2.602 2.105 4.803 4.791 4.803h22.891c2.506 0 4.907-2.209 4.791-4.803a5.201 5.201 0 0 0-1.277-3.202h16.183c2.506 0 4.907-2.209 4.791-4.803-.117-2.602-2.106-4.803-4.792-4.803z"></path></g></g>
</svg>
</g></svg></svg>